<svg width="33" height="39" viewBox="0 0 33 39" fill="none" xmlns="http://www.w3.org/2000/svg">
<path d="M25.5376 7.27049C26.358 7.27049 27.1448 6.8875 27.7249 6.20576C28.305 5.52401 28.6309 4.59937 28.6309 3.63525C28.6309 2.67112 28.305 1.74648 27.7249 1.06474C27.1448 0.382998 26.358 0 25.5376 0C24.7172 0 23.9305 0.382998 23.3503 1.06474C22.7702 1.74648 22.4443 2.67112 22.4443 3.63525C22.4443 4.59937 22.7702 5.52401 23.3503 6.20576C23.9305 6.8875 24.7172 7.27049 25.5376 7.27049ZM20.105 15.1847C20.1695 15.1544 20.2275 15.1241 20.2919 15.0938L19.2028 19.903C18.8419 21.501 19.1964 23.205 20.1501 24.4243L24.7063 30.2634L26.1241 36.9356C26.4012 38.2307 27.5225 39.0259 28.6245 38.7002C29.7265 38.3746 30.4031 37.0568 30.126 35.7617L28.6438 28.7866C28.5214 28.1959 28.27 27.6582 27.9221 27.2113L24.7321 23.1217L25.9759 18.1611L26.5945 19.903C26.8781 20.7058 27.4001 21.3647 28.0638 21.7585L29.7845 22.7657C30.8027 23.364 32.04 22.8793 32.5491 21.6827C33.0582 20.4861 32.6458 19.032 31.6276 18.4337L30.242 17.6234L29.256 14.8364C28.1476 11.7237 25.557 9.69399 22.6828 9.69399C21.2135 9.69399 19.7635 10.0575 18.4231 10.7543L17.9075 11.0193C15.7873 12.1251 14.1633 14.2305 13.4351 16.813L13.2676 17.4037C12.9067 18.6761 13.4931 20.0469 14.5693 20.471C15.6455 20.8951 16.8184 20.2059 17.1793 18.9412L17.3468 18.3504C17.7142 17.0554 18.5262 16.0102 19.583 15.4574L20.0986 15.1923L20.105 15.1847ZM18.1717 25.4164L16.5606 30.1423L12.7327 34.6409C11.9271 35.5876 11.9271 37.125 12.7327 38.0716C13.5382 39.0183 14.8464 39.0183 15.652 38.0716L19.6282 33.3988C19.9246 33.0505 20.1566 32.6339 20.3113 32.1795L21.2457 29.4379L18.6228 26.0753C18.4617 25.8708 18.3135 25.6512 18.1717 25.424V25.4164ZM14.1955 20.7588C13.6993 20.4255 13.0742 20.6225 12.7842 21.2056L10.722 25.4013L7.2163 23.0232C6.23031 22.3568 4.96721 22.7506 4.40011 23.9093L0.275714 32.3083C-0.291391 33.467 0.0437165 34.9514 1.0297 35.6178L4.59988 38.0413C5.58587 38.7078 6.84897 38.314 7.41607 37.1553L11.5405 28.7563C11.6371 28.5594 11.708 28.3625 11.7531 28.1504L14.5758 22.4174C14.8593 21.8342 14.6918 21.0996 14.1955 20.7588Z" fill="#17C3B2"/>
</svg>
